Description
[18+]Shunyo E Bukey(2005) DVD Rip EngSub Bengali Movie.avi

Shunyo E Buke (Empty canvas) is a 2005 Bengali film directed by Kaushik Ganguly.[1] The film deals with the psyche of men and women and their physical relationship. After making Warish Ganguly made this second feature film and this film did well in Kolkata and was appreciated in few film festivals

Churni Ganguly.
Kaushik Sen.
Kharaj Mukherjee.
Tota Roychoudhury.
Biswajit Chakraborty.
Rajesh Sharma.
Sudip Mitra.
Guest appearance
Rupa Ganguly.
Soma Dey.
Dipankar Dey.


General
Format : AVI
Format/Info : Audio Video Interleave
File size : 701 MiB
Duration : 2h 4mn
Overall bit rate : 790 Kbps
Video #0
ID : 0
Format : MPEG-4 Visual
Format profile : Advanced Simple@L5
Format settings, BVOP : 2
Format settings, QPel : No
Format settings, GMC : No warppoints
Format settings, Matrix : Default (H.263)
Codec ID : XVID
Codec ID/Hint : XviD
Duration : 2h 4mn
Bit rate : 704 Kbps
Width : 560 pixels
Height : 416 pixels
Display aspect ratio : 4:3
Frame rate : 25.000 fps
Color space : YUV
Chroma subsampling : 4:2:0
Bit depth : 8 bits
Scan type : Progressive
Bits/(Pixel*Frame) : 0.121
Stream size : 625 MiB (89%)


Audio #1
ID : 1
Format : MPEG Audio
Format version : Version 1
Format profile : Layer 3
Mode : Joint stereo
Mode extension : MS Stereo
Codec ID : 55
Codec ID/Hint : MP3
Duration : 2h 4mn
Bit rate mode : Constant
Bit rate : 80.0 Kbps
Channel(s) : 2 channels
Sampling rate : 32.0 KHz
Compression mode : Lossy
Stream size : 71.1 MiB (10%)
Subtitles
English (Hardcoded & Muxed)

Screen Shot: 
https://kastatic.com/i2/u/867472/UhCF6rvnm3.png 
https://kastatic.com/i2/u/867472/ohaWHIAXk6.png 
https://kastatic.com/i2/u/867472/Wc5hMnueFt.png 
https://kastatic.com/i2/u/867472/Qpdo5CtEIu.png 
https://kastatic.com/i2/u/867472/wHzZNiEvrs.png 
https://kastatic.com/i2/u/867472/7eRgZyFD2q.png